<svg xmlns="http://www.w3.org/2000/svg" viewBox="0 0 320 120" role="img" aria-labelledby="title">
  <title>Drift-Import helmet camera logo</title>
  <rect width="320" height="120" rx="20" fill="#f7fff9"/>
  <path d="M68 78c0-34 27-56 66-56 49 0 82 27 88 70H91c-14 0-23-6-23-14z" fill="#1f8f4d"/>
  <path d="M82 81c11-28 35-44 70-44 24 0 43 9 55 25-20 3-41 5-62 5-27 0-48 5-63 14z" fill="#dff5e7"/>
  <path d="M92 92h129c-4 10-15 17-32 17h-69c-15 0-25-6-28-17z" fill="#0b2f1b"/>
  <rect x="217" y="39" width="54" height="36" rx="10" fill="#111827"/>
  <circle cx="244" cy="57" r="12" fill="#dff5e7"/>
  <circle cx="244" cy="57" r="7" fill="#1f8f4d"/>
  <path d="M271 50h24l8 14h-32z" fill="#0b2f1b"/>
  <path d="M61 79c0-38 30-64 73-64 56 0 92 32 97 77" fill="none" stroke="#0b2f1b" stroke-width="8" stroke-linecap="round"/>
  <path d="M96 92h126" fill="none" stroke="#0b2f1b" stroke-width="8" stroke-linecap="round"/>
</svg>
